# xmcd
#
# Track frame offsets:
#	150
#	13909
#	27578
#	41756
#	57952
#	72563
#	86278
#	101985
#	114612
#	129325
#	142473
#	153185
#	171431
#	184124
#	198920
#	212825
#	229272
#	248423
#	260986
#
# Disc length: 3624 seconds
#
# Revision: 5
# Processed by: cddbd v1.5.1PL0 Copyright (c) Steve Scherf et al.
# Submitted via: audiograbber 1.83.01
#
DISCID=220e2613
DTITLE=1996-05 Country Radio - 1996-05 Country Radio
DYEAR=1996
DGENRE=Country
TTITLE0=Shania Twain - No One Needs To Know
TTITLE1=Alabama - Say I
TTITLE2=John Michael Montgomery - Just Like A Rodeo
TTITLE3=Keith Stegall - 50-50
TTITLE4=Neal Mccoy - Then You Can Tell Me Goodbye
TTITLE5=Mandy Barnett - Maybe
TTITLE6=Lee Roy Parnell - Givin' Water To A Drowning Man
TTITLE7=David Ball - Circle Of Friends
TTITLE8=Diamond Rio - That's What I Get For Lovin' You
TTITLE9=Lari White - Don't Fence Me In, Wild At Heart
TTITLE10=Lari White - Wild At Heart
TTITLE11=Great Plains - Dancin' With The Wind
TTITLE12=Confederate Railroad - See Ya
TTITLE13=Alan Jackson - Home
TTITLE14=Aaron Tippin - Everything I Own
TTITLE15=David Kersh - Breaking Hearts and Taking Names (Radio Mix)
TTITLE16=David Kersh - Breaking Hearts and Taking Names (Club Mix)
TTITLE17=Leann Rimes - Blue
TTITLE18=Shelby Lynne - Another Chance At Love
EXTD=
EXTT0=
EXTT1=
EXTT2=
EXTT3=
EXTT4=
EXTT5=
EXTT6=
EXTT7=
EXTT8=
EXTT9=
EXTT10=
EXTT11=
EXTT12=
EXTT13=
EXTT14=
EXTT15=
EXTT16=
EXTT17=
EXTT18=
PLAYORDER=
